<?xml version="1.0" standalone="no"?>
<!DOCTYPE svg PUBLIC "-//W3C//DTD SVG 20010904//EN"
 "http://www.w3.org/TR/2001/REC-SVG-20010904/DTD/svg10.dtd">
<svg version="1.0" xmlns="http://www.w3.org/2000/svg"
 width="512.000000pt" height="512.000000pt" viewBox="0 0 512.000000 512.000000"
 preserveAspectRatio="xMidYMid meet">
<metadata>
Created by potrace 1.14, written by Peter Selinger 2001-2017
</metadata>
<g transform="translate(0.000000,512.000000) scale(0.100000,-0.100000)"
fill="#000000" stroke="none">
<path d="M2947 5074 c-1 -1 -22 -4 -47 -7 -25 -3 -56 -8 -70 -10 -26 -5 -133
-19 -160 -22 -9 0 -20 -4 -25 -7 -10 -6 -118 -3 -205 7 -63 7 -215 6 -233 0
-8 -4 -39 -8 -68 -10 -30 -2 -69 -8 -88 -14 -18 -6 -36 -10 -40 -9 -3 1 -15
-3 -26 -7 -45 -18 -120 -47 -120 -45 0 1 -26 -8 -112 -40 -141 -53 -169 -65
-188 -76 -11 -7 -38 -20 -60 -27 -51 -18 -225 -119 -288 -166 -56 -42 -139
-123 -183 -178 -34 -42 -50 -83 -89 -223 -15 -52 -45 -132 -67 -178 -43 -92
-44 -95 -63 -197 -20 -106 -26 -146 -30 -199 -2 -26 -9 -71 -14 -100 -6 -28
-13 -64 -15 -79 -7 -41 -36 -126 -57 -168 -10 -20 -20 -47 -22 -60 -3 -13 -10
-42 -15 -64 -13 -47 -21 -87 -28 -134 -2 -18 -9 -42 -15 -53 -17 -32 -20 -65
-9 -110 12 -47 18 -76 24 -110 17 -93 64 -258 87 -300 17 -31 120 -138 133
-138 6 0 17 -9 24 -20 7 -11 18 -20 26 -20 35 0 120 -64 172 -131 6 -8 28 -27
48 -43 l38 -30 -26 -19 c-35 -25 -56 -67 -46 -92 4 -11 25 -38 47 -60 45 -47
73 -88 73 -109 0 -8 8 -21 17 -28 10 -7 32 -33 48 -58 17 -25 64 -79 105 -120
41 -42 76 -82 78 -90 6 -30 40 -87 77 -127 39 -44 48 -57 87 -131 12 -23 26
-42 30 -42 4 0 8 -6 8 -13 0 -8 9 -25 21 -38 11 -13 28 -37 36 -54 9 -16 31
-48 49 -69 19 -22 34 -45 34 -51 0 -11 54 -86 92 -129 31 -34 68 -92 72 -112
2 -10 10 -32 17 -49 21 -51 21 -76 2 -91 -10 -7 -15 -14 -11 -14 4 0 -4 -12
-18 -27 -14 -15 -38 -54 -54 -88 -36 -75 -91 -131 -167 -170 -32 -15 -71 -39
-88 -51 -16 -12 -43 -26 -60 -30 -25 -6 -142 -56 -195 -84 -9 -4 -30 -11 -48
-14 -17 -4 -31 -11 -30 -14 5 -16 -37 -84 -64 -107 l-30 -25 1826 0 c1249 0
1826 3 1826 10 0 41 -77 138 -113 141 -17 2 -48 7 -77 12 -79 16 -134 21 -210
22 -131 2 -143 7 -256 121 -40 41 -80 74 -88 74 -9 0 -16 3 -16 8 0 4 -16 16
-36 27 -44 24 -78 75 -97 146 -17 65 -87 219 -99 219 -5 0 -7 4 -4 9 3 5 -13
25 -37 44 -23 20 -58 49 -77 66 -19 17 -49 34 -67 37 -28 5 -30 8 -23 33 7 24
32 78 86 181 10 19 19 42 21 50 1 8 6 16 11 18 8 2 29 61 67 188 9 31 13 74
10 105 -2 29 1 73 7 99 6 25 12 75 13 111 3 79 28 139 80 194 44 47 95 118
113 158 6 15 12 56 12 90 0 41 9 86 26 132 33 93 33 93 39 220 3 61 8 134 11
162 3 29 5 55 5 58 -1 13 33 82 54 109 26 36 28 51 15 126 -6 30 -12 136 -14
235 -3 99 -8 194 -11 210 -3 17 -7 66 -9 111 -1 44 -7 87 -12 95 -4 8 -10 19
-11 24 -15 60 -21 118 -22 210 0 96 -3 117 -25 161 -21 44 -42 106 -51 155 -2
9 -8 25 -14 35 -10 19 -27 56 -74 169 -14 33 -47 98 -74 145 -26 47 -55 97
-62 113 -8 15 -19 27 -24 27 -6 0 -18 7 -28 16 -9 8 -23 16 -31 18 -30 4 -122
70 -184 130 -97 97 -212 173 -284 190 -33 8 -60 12 -60 9 0 -3 -7 0 -15 7 -8
7 -15 9 -15 5 0 -4 -6 -3 -12 2 -24 19 -104 34 -182 36 -43 1 -78 1 -79 1z"/>
</g>
</svg>
